<mxfile host="app.diagrams.net" agent="Mozilla/5.0 (Windows NT 10.0; Win64; x64) AppleWebKit/537.36 (KHTML, like Gecko) Chrome/127.0.0.0 Safari/537.36" version="24.7.6">
  <diagram name="Page-1" id="eQOUzztxeiXNIiBQPvsH">
    <mxGraphModel dx="872" dy="434" grid="1" gridSize="10" guides="1" tooltips="1" connect="1" arrows="1" fold="1" page="1" pageScale="1" pageWidth="850" pageHeight="1100" math="0" shadow="0">
      <root>
        <mxCell id="0" />
        <mxCell id="1" parent="0" />
        <mxCell id="URRwwOUlU0XFca4YtX46-41" value="" style="edgeStyle=orthogonalEdgeStyle;rounded=0;orthogonalLoop=1;jettySize=auto;html=1;entryX=0.515;entryY=0.122;entryDx=0;entryDy=0;entryPerimeter=0;" edge="1" parent="1" source="RKe_MHRfLupzPYKBBxYH-2" target="URRwwOUlU0XFca4YtX46-2">
          <mxGeometry relative="1" as="geometry">
            <mxPoint x="450" y="190" as="targetPoint" />
            <Array as="points">
              <mxPoint x="450" y="190" />
              <mxPoint x="177" y="190" />
            </Array>
          </mxGeometry>
        </mxCell>
        <mxCell id="RKe_MHRfLupzPYKBBxYH-2" value="&lt;b&gt;Read Dataset&lt;/b&gt;" style="rounded=1;whiteSpace=wrap;html=1;fillColor=#f5f5f5;fontColor=#333333;strokeColor=#666666;" parent="1" vertex="1">
          <mxGeometry x="390" y="90" width="120" height="30" as="geometry" />
        </mxCell>
        <mxCell id="URRwwOUlU0XFca4YtX46-1" value="Data Preprocessing" style="rounded=1;whiteSpace=wrap;html=1;fillColor=#ffcc99;strokeColor=#36393d;fontStyle=1" vertex="1" parent="1">
          <mxGeometry x="390" y="140" width="120" height="30" as="geometry" />
        </mxCell>
        <mxCell id="URRwwOUlU0XFca4YtX46-43" value="" style="edgeStyle=orthogonalEdgeStyle;rounded=0;orthogonalLoop=1;jettySize=auto;html=1;" edge="1" parent="1" source="URRwwOUlU0XFca4YtX46-2" target="URRwwOUlU0XFca4YtX46-3">
          <mxGeometry relative="1" as="geometry" />
        </mxCell>
        <mxCell id="URRwwOUlU0XFca4YtX46-2" value="Dropping Unnecessary Columns" style="rounded=1;whiteSpace=wrap;html=1;fillColor=#cce5ff;strokeColor=#36393d;" vertex="1" parent="1">
          <mxGeometry x="100" y="210" width="150" height="30" as="geometry" />
        </mxCell>
        <mxCell id="URRwwOUlU0XFca4YtX46-44" value="" style="edgeStyle=orthogonalEdgeStyle;rounded=0;orthogonalLoop=1;jettySize=auto;html=1;" edge="1" parent="1" source="URRwwOUlU0XFca4YtX46-3" target="URRwwOUlU0XFca4YtX46-4">
          <mxGeometry relative="1" as="geometry" />
        </mxCell>
        <mxCell id="URRwwOUlU0XFca4YtX46-3" value="Handling Null Values" style="rounded=1;whiteSpace=wrap;html=1;fillColor=#cce5ff;strokeColor=#36393d;" vertex="1" parent="1">
          <mxGeometry x="260" y="210" width="120" height="30" as="geometry" />
        </mxCell>
        <mxCell id="URRwwOUlU0XFca4YtX46-45" value="" style="edgeStyle=orthogonalEdgeStyle;rounded=0;orthogonalLoop=1;jettySize=auto;html=1;" edge="1" parent="1" source="URRwwOUlU0XFca4YtX46-4" target="URRwwOUlU0XFca4YtX46-5">
          <mxGeometry relative="1" as="geometry" />
        </mxCell>
        <mxCell id="URRwwOUlU0XFca4YtX46-4" value="Text Preprocessing" style="rounded=1;whiteSpace=wrap;html=1;fillColor=#cce5ff;strokeColor=#36393d;" vertex="1" parent="1">
          <mxGeometry x="390" y="210" width="120" height="30" as="geometry" />
        </mxCell>
        <mxCell id="URRwwOUlU0XFca4YtX46-46" value="" style="edgeStyle=orthogonalEdgeStyle;rounded=0;orthogonalLoop=1;jettySize=auto;html=1;" edge="1" parent="1" source="URRwwOUlU0XFca4YtX46-5" target="URRwwOUlU0XFca4YtX46-6">
          <mxGeometry relative="1" as="geometry" />
        </mxCell>
        <mxCell id="URRwwOUlU0XFca4YtX46-5" value="&lt;br&gt;Data Lemmatization &lt;div&gt;&lt;br/&gt;&lt;/div&gt;" style="rounded=1;whiteSpace=wrap;html=1;fillColor=#cce5ff;strokeColor=#36393d;" vertex="1" parent="1">
          <mxGeometry x="520" y="210" width="130" height="30" as="geometry" />
        </mxCell>
        <mxCell id="URRwwOUlU0XFca4YtX46-48" value="" style="edgeStyle=orthogonalEdgeStyle;rounded=0;orthogonalLoop=1;jettySize=auto;html=1;entryX=0.5;entryY=0;entryDx=0;entryDy=0;" edge="1" parent="1" source="URRwwOUlU0XFca4YtX46-6" target="URRwwOUlU0XFca4YtX46-7">
          <mxGeometry relative="1" as="geometry">
            <mxPoint x="725" y="305" as="targetPoint" />
            <Array as="points">
              <mxPoint x="725" y="250" />
              <mxPoint x="450" y="250" />
            </Array>
          </mxGeometry>
        </mxCell>
        <mxCell id="URRwwOUlU0XFca4YtX46-6" value="TF-IDF Vectorization" style="rounded=1;whiteSpace=wrap;html=1;fillColor=#cce5ff;strokeColor=#36393d;" vertex="1" parent="1">
          <mxGeometry x="660" y="210" width="130" height="30" as="geometry" />
        </mxCell>
        <mxCell id="URRwwOUlU0XFca4YtX46-49" value="" style="edgeStyle=orthogonalEdgeStyle;rounded=0;orthogonalLoop=1;jettySize=auto;html=1;" edge="1" parent="1" source="URRwwOUlU0XFca4YtX46-7" target="URRwwOUlU0XFca4YtX46-8">
          <mxGeometry relative="1" as="geometry" />
        </mxCell>
        <mxCell id="URRwwOUlU0XFca4YtX46-50" value="" style="edgeStyle=orthogonalEdgeStyle;rounded=0;orthogonalLoop=1;jettySize=auto;html=1;" edge="1" parent="1" source="URRwwOUlU0XFca4YtX46-7" target="URRwwOUlU0XFca4YtX46-9">
          <mxGeometry relative="1" as="geometry">
            <Array as="points">
              <mxPoint x="610" y="285" />
            </Array>
          </mxGeometry>
        </mxCell>
        <mxCell id="URRwwOUlU0XFca4YtX46-7" value="&lt;b&gt;Dataset Splitting&amp;nbsp;&lt;/b&gt;" style="rounded=1;whiteSpace=wrap;html=1;fillColor=#dae8fc;gradientColor=#7ea6e0;strokeColor=#6c8ebf;" vertex="1" parent="1">
          <mxGeometry x="390" y="270" width="120" height="30" as="geometry" />
        </mxCell>
        <mxCell id="URRwwOUlU0XFca4YtX46-51" value="" style="edgeStyle=orthogonalEdgeStyle;rounded=0;orthogonalLoop=1;jettySize=auto;html=1;" edge="1" parent="1" source="URRwwOUlU0XFca4YtX46-8" target="URRwwOUlU0XFca4YtX46-10">
          <mxGeometry relative="1" as="geometry" />
        </mxCell>
        <mxCell id="URRwwOUlU0XFca4YtX46-8" value="Training Data (70%)" style="shape=cylinder3;whiteSpace=wrap;html=1;boundedLbl=1;backgroundOutline=1;size=15;fillColor=#f5f5f5;gradientColor=#b3b3b3;strokeColor=#666666;" vertex="1" parent="1">
          <mxGeometry x="250" y="310" width="80" height="60" as="geometry" />
        </mxCell>
        <mxCell id="URRwwOUlU0XFca4YtX46-52" value="" style="edgeStyle=orthogonalEdgeStyle;rounded=0;orthogonalLoop=1;jettySize=auto;html=1;" edge="1" parent="1" source="URRwwOUlU0XFca4YtX46-9" target="URRwwOUlU0XFca4YtX46-10">
          <mxGeometry relative="1" as="geometry" />
        </mxCell>
        <mxCell id="URRwwOUlU0XFca4YtX46-9" value="Testing Data (30%)" style="shape=cylinder3;whiteSpace=wrap;html=1;boundedLbl=1;backgroundOutline=1;size=15;fillColor=#f5f5f5;gradientColor=#b3b3b3;strokeColor=#666666;" vertex="1" parent="1">
          <mxGeometry x="570" y="310" width="80" height="60" as="geometry" />
        </mxCell>
        <mxCell id="URRwwOUlU0XFca4YtX46-10" value="&lt;b&gt;Machine Learning Model Training&lt;/b&gt;" style="rounded=1;whiteSpace=wrap;html=1;fillColor=#eeeeee;strokeColor=#36393d;" vertex="1" parent="1">
          <mxGeometry x="370" y="360" width="160" height="30" as="geometry" />
        </mxCell>
        <mxCell id="URRwwOUlU0XFca4YtX46-11" value="Multinomial Naive Bayes" style="rounded=0;whiteSpace=wrap;html=1;fillColor=#bac8d3;strokeColor=#23445d;" vertex="1" parent="1">
          <mxGeometry x="50" y="480" width="150" height="30" as="geometry" />
        </mxCell>
        <mxCell id="URRwwOUlU0XFca4YtX46-13" value="Bernoulli Naive Bayes" style="rounded=0;whiteSpace=wrap;html=1;fillColor=#bac8d3;strokeColor=#23445d;" vertex="1" parent="1">
          <mxGeometry x="250" y="480" width="140" height="30" as="geometry" />
        </mxCell>
        <mxCell id="URRwwOUlU0XFca4YtX46-14" value="Conventional ML Model" style="rounded=1;whiteSpace=wrap;html=1;fontStyle=1;fillColor=#fff2cc;gradientColor=#ffd966;strokeColor=#d6b656;" vertex="1" parent="1">
          <mxGeometry x="170" y="420" width="150" height="30" as="geometry" />
        </mxCell>
        <mxCell id="URRwwOUlU0XFca4YtX46-15" value="&lt;b&gt;Hybrid Model&lt;/b&gt;" style="rounded=1;whiteSpace=wrap;html=1;fillColor=#fff2cc;gradientColor=#ffd966;strokeColor=#d6b656;" vertex="1" parent="1">
          <mxGeometry x="625" y="420" width="120" height="30" as="geometry" />
        </mxCell>
        <mxCell id="URRwwOUlU0XFca4YtX46-16" value="Logistic Regression" style="rounded=0;whiteSpace=wrap;html=1;fillColor=#bac8d3;strokeColor=#23445d;" vertex="1" parent="1">
          <mxGeometry x="425" y="480" width="160" height="30" as="geometry" />
        </mxCell>
        <mxCell id="URRwwOUlU0XFca4YtX46-17" value="Base Model: LR, DT, SVC" style="rounded=0;whiteSpace=wrap;html=1;fillColor=#b1ddf0;strokeColor=#10739e;" vertex="1" parent="1">
          <mxGeometry x="610" y="480" width="150" height="30" as="geometry" />
        </mxCell>
        <mxCell id="URRwwOUlU0XFca4YtX46-20" value="&lt;b&gt;Prediction&lt;/b&gt;" style="rounded=1;whiteSpace=wrap;html=1;fillColor=#d5e8d4;strokeColor=#82b366;gradientColor=#97d077;" vertex="1" parent="1">
          <mxGeometry x="270" y="560" width="140" height="30" as="geometry" />
        </mxCell>
        <mxCell id="URRwwOUlU0XFca4YtX46-21" value="Fake News" style="swimlane;fontStyle=0;childLayout=stackLayout;horizontal=1;startSize=20;horizontalStack=0;resizeParent=1;resizeParentMax=0;resizeLast=0;collapsible=1;marginBottom=0;whiteSpace=wrap;html=1;fillColor=#f8cecc;strokeColor=#b85450;" vertex="1" parent="1">
          <mxGeometry x="140" y="630" width="130" height="40" as="geometry" />
        </mxCell>
        <mxCell id="URRwwOUlU0XFca4YtX46-22" value="0" style="text;strokeColor=#d79b00;fillColor=#ffe6cc;align=center;verticalAlign=middle;spacingLeft=4;spacingRight=4;overflow=hidden;points=[[0,0.5],[1,0.5]];portConstraint=eastwest;rotatable=0;whiteSpace=wrap;html=1;" vertex="1" parent="URRwwOUlU0XFca4YtX46-21">
          <mxGeometry y="20" width="130" height="20" as="geometry" />
        </mxCell>
        <mxCell id="URRwwOUlU0XFca4YtX46-29" value="Accuracy" style="rounded=1;whiteSpace=wrap;html=1;fillColor=#dae8fc;gradientColor=#7ea6e0;strokeColor=#6c8ebf;" vertex="1" parent="1">
          <mxGeometry x="600" y="630" width="120" height="30" as="geometry" />
        </mxCell>
        <mxCell id="URRwwOUlU0XFca4YtX46-30" value="Precision&amp;nbsp;" style="rounded=1;whiteSpace=wrap;html=1;fillColor=#dae8fc;gradientColor=#7ea6e0;strokeColor=#6c8ebf;" vertex="1" parent="1">
          <mxGeometry x="620" y="660" width="120" height="30" as="geometry" />
        </mxCell>
        <mxCell id="URRwwOUlU0XFca4YtX46-32" value="Recall" style="rounded=1;whiteSpace=wrap;html=1;fillColor=#dae8fc;gradientColor=#7ea6e0;strokeColor=#6c8ebf;" vertex="1" parent="1">
          <mxGeometry x="660" y="690" width="110" height="30" as="geometry" />
        </mxCell>
        <mxCell id="URRwwOUlU0XFca4YtX46-33" value="F1-Score" style="rounded=1;whiteSpace=wrap;html=1;fillColor=#dae8fc;gradientColor=#7ea6e0;strokeColor=#6c8ebf;" vertex="1" parent="1">
          <mxGeometry x="690" y="720" width="110" height="30" as="geometry" />
        </mxCell>
        <mxCell id="URRwwOUlU0XFca4YtX46-34" value="Real News" style="swimlane;fontStyle=0;childLayout=stackLayout;horizontal=1;startSize=20;horizontalStack=0;resizeParent=1;resizeParentMax=0;resizeLast=0;collapsible=1;marginBottom=0;whiteSpace=wrap;html=1;fillColor=#dae8fc;strokeColor=#6c8ebf;" vertex="1" parent="1">
          <mxGeometry x="410" y="630" width="110" height="40" as="geometry">
            <mxRectangle x="410" y="630" width="101" height="40" as="alternateBounds" />
          </mxGeometry>
        </mxCell>
        <mxCell id="URRwwOUlU0XFca4YtX46-35" value="1" style="text;strokeColor=#82b366;fillColor=#d5e8d4;align=center;verticalAlign=middle;spacingLeft=4;spacingRight=4;overflow=hidden;points=[[0,0.5],[1,0.5]];portConstraint=eastwest;rotatable=0;whiteSpace=wrap;html=1;" vertex="1" parent="URRwwOUlU0XFca4YtX46-34">
          <mxGeometry y="20" width="110" height="20" as="geometry" />
        </mxCell>
        <mxCell id="URRwwOUlU0XFca4YtX46-36" value="&lt;b&gt;Evaluation Matrix&lt;/b&gt;" style="rounded=1;whiteSpace=wrap;html=1;fillColor=#fff2cc;strokeColor=#d6b656;" vertex="1" parent="1">
          <mxGeometry x="581" y="560" width="170" height="30" as="geometry" />
        </mxCell>
        <mxCell id="URRwwOUlU0XFca4YtX46-56" value="" style="endArrow=classic;startArrow=classic;html=1;rounded=0;entryX=0.541;entryY=-0.038;entryDx=0;entryDy=0;exitX=0.407;exitY=-0.088;exitDx=0;exitDy=0;exitPerimeter=0;entryPerimeter=0;" edge="1" parent="1" source="URRwwOUlU0XFca4YtX46-14" target="URRwwOUlU0XFca4YtX46-15">
          <mxGeometry width="50" height="50" relative="1" as="geometry">
            <mxPoint x="299.9999999999999" y="440" as="sourcePoint" />
            <mxPoint x="625" y="440" as="targetPoint" />
            <Array as="points">
              <mxPoint x="231" y="400" />
              <mxPoint x="690" y="400" />
            </Array>
          </mxGeometry>
        </mxCell>
        <mxCell id="URRwwOUlU0XFca4YtX46-57" value="" style="endArrow=none;html=1;rounded=0;entryX=0.5;entryY=1;entryDx=0;entryDy=0;" edge="1" parent="1" target="URRwwOUlU0XFca4YtX46-10">
          <mxGeometry width="50" height="50" relative="1" as="geometry">
            <mxPoint x="450" y="400" as="sourcePoint" />
            <mxPoint x="430" y="400" as="targetPoint" />
          </mxGeometry>
        </mxCell>
        <mxCell id="URRwwOUlU0XFca4YtX46-58" value="" style="endArrow=classic;startArrow=classic;html=1;rounded=0;exitX=0.452;exitY=-0.11;exitDx=0;exitDy=0;exitPerimeter=0;" edge="1" parent="1" source="URRwwOUlU0XFca4YtX46-11">
          <mxGeometry width="50" height="50" relative="1" as="geometry">
            <mxPoint x="430" y="490" as="sourcePoint" />
            <mxPoint x="510" y="479" as="targetPoint" />
            <Array as="points">
              <mxPoint x="118" y="460" />
              <mxPoint x="510" y="460" />
            </Array>
          </mxGeometry>
        </mxCell>
        <mxCell id="URRwwOUlU0XFca4YtX46-59" value="" style="endArrow=classic;html=1;rounded=0;exitX=0.466;exitY=0.987;exitDx=0;exitDy=0;exitPerimeter=0;entryX=0.5;entryY=0;entryDx=0;entryDy=0;" edge="1" parent="1" source="URRwwOUlU0XFca4YtX46-14" target="URRwwOUlU0XFca4YtX46-13">
          <mxGeometry width="50" height="50" relative="1" as="geometry">
            <mxPoint x="240" y="530" as="sourcePoint" />
            <mxPoint x="290" y="480" as="targetPoint" />
            <Array as="points">
              <mxPoint x="240" y="460" />
              <mxPoint x="320" y="460" />
            </Array>
          </mxGeometry>
        </mxCell>
        <mxCell id="URRwwOUlU0XFca4YtX46-61" value="" style="endArrow=classic;html=1;rounded=0;exitX=0.551;exitY=0.983;exitDx=0;exitDy=0;exitPerimeter=0;entryX=0.545;entryY=-0.051;entryDx=0;entryDy=0;entryPerimeter=0;" edge="1" parent="1" source="URRwwOUlU0XFca4YtX46-15" target="URRwwOUlU0XFca4YtX46-17">
          <mxGeometry width="50" height="50" relative="1" as="geometry">
            <mxPoint x="570" y="550" as="sourcePoint" />
            <mxPoint x="620" y="500" as="targetPoint" />
          </mxGeometry>
        </mxCell>
        <mxCell id="URRwwOUlU0XFca4YtX46-62" value="" style="endArrow=none;html=1;rounded=0;exitX=0.5;exitY=1;exitDx=0;exitDy=0;entryX=0.678;entryY=1.055;entryDx=0;entryDy=0;entryPerimeter=0;" edge="1" parent="1" source="URRwwOUlU0XFca4YtX46-11" target="URRwwOUlU0XFca4YtX46-17">
          <mxGeometry width="50" height="50" relative="1" as="geometry">
            <mxPoint x="410" y="590" as="sourcePoint" />
            <mxPoint x="460" y="540" as="targetPoint" />
            <Array as="points">
              <mxPoint x="125" y="530" />
              <mxPoint x="712" y="530" />
            </Array>
          </mxGeometry>
        </mxCell>
        <mxCell id="URRwwOUlU0XFca4YtX46-63" value="" style="endArrow=classic;html=1;rounded=0;exitX=0.5;exitY=1;exitDx=0;exitDy=0;entryX=0.537;entryY=-0.029;entryDx=0;entryDy=0;entryPerimeter=0;" edge="1" parent="1" source="URRwwOUlU0XFca4YtX46-13" target="URRwwOUlU0XFca4YtX46-20">
          <mxGeometry width="50" height="50" relative="1" as="geometry">
            <mxPoint x="380" y="610" as="sourcePoint" />
            <mxPoint x="430" y="560" as="targetPoint" />
            <Array as="points">
              <mxPoint x="320" y="530" />
              <mxPoint x="345" y="530" />
            </Array>
          </mxGeometry>
        </mxCell>
        <mxCell id="URRwwOUlU0XFca4YtX46-64" value="" style="endArrow=classic;html=1;rounded=0;exitX=0.5;exitY=1;exitDx=0;exitDy=0;entryX=0.554;entryY=-0.036;entryDx=0;entryDy=0;entryPerimeter=0;" edge="1" parent="1" target="URRwwOUlU0XFca4YtX46-36">
          <mxGeometry width="50" height="50" relative="1" as="geometry">
            <mxPoint x="510" y="510" as="sourcePoint" />
            <mxPoint x="671" y="560" as="targetPoint" />
            <Array as="points">
              <mxPoint x="510" y="530" />
              <mxPoint x="675" y="530" />
            </Array>
          </mxGeometry>
        </mxCell>
        <mxCell id="URRwwOUlU0XFca4YtX46-65" value="" style="endArrow=classic;html=1;rounded=0;exitX=0.531;exitY=1.032;exitDx=0;exitDy=0;exitPerimeter=0;entryX=0;entryY=0.5;entryDx=0;entryDy=0;" edge="1" parent="1" target="URRwwOUlU0XFca4YtX46-33">
          <mxGeometry width="50" height="50" relative="1" as="geometry">
            <mxPoint x="670.64" y="590" as="sourcePoint" />
            <mxPoint x="689.37" y="742.5" as="targetPoint" />
            <Array as="points">
              <mxPoint x="670" y="610" />
              <mxPoint x="580" y="610" />
              <mxPoint x="580" y="735" />
            </Array>
          </mxGeometry>
        </mxCell>
        <mxCell id="URRwwOUlU0XFca4YtX46-66" value="" style="endArrow=classic;html=1;rounded=0;" edge="1" parent="1">
          <mxGeometry width="50" height="50" relative="1" as="geometry">
            <mxPoint x="580" y="640" as="sourcePoint" />
            <mxPoint x="600" y="640" as="targetPoint" />
          </mxGeometry>
        </mxCell>
        <mxCell id="URRwwOUlU0XFca4YtX46-67" value="" style="endArrow=classic;html=1;rounded=0;entryX=0;entryY=0.5;entryDx=0;entryDy=0;" edge="1" parent="1" target="URRwwOUlU0XFca4YtX46-30">
          <mxGeometry width="50" height="50" relative="1" as="geometry">
            <mxPoint x="580" y="675" as="sourcePoint" />
            <mxPoint x="670" y="650" as="targetPoint" />
          </mxGeometry>
        </mxCell>
        <mxCell id="URRwwOUlU0XFca4YtX46-68" value="" style="endArrow=classic;html=1;rounded=0;entryX=0;entryY=0.5;entryDx=0;entryDy=0;" edge="1" parent="1" target="URRwwOUlU0XFca4YtX46-32">
          <mxGeometry width="50" height="50" relative="1" as="geometry">
            <mxPoint x="580" y="705" as="sourcePoint" />
            <mxPoint x="670" y="650" as="targetPoint" />
          </mxGeometry>
        </mxCell>
        <mxCell id="URRwwOUlU0XFca4YtX46-69" value="" style="endArrow=classic;startArrow=classic;html=1;rounded=0;exitX=0.45;exitY=-0.029;exitDx=0;exitDy=0;exitPerimeter=0;entryX=0.545;entryY=0;entryDx=0;entryDy=0;entryPerimeter=0;" edge="1" parent="1" source="URRwwOUlU0XFca4YtX46-21" target="URRwwOUlU0XFca4YtX46-34">
          <mxGeometry width="50" height="50" relative="1" as="geometry">
            <mxPoint x="360" y="690" as="sourcePoint" />
            <mxPoint x="410" y="640" as="targetPoint" />
            <Array as="points">
              <mxPoint x="199" y="610" />
              <mxPoint x="470" y="610" />
            </Array>
          </mxGeometry>
        </mxCell>
        <mxCell id="URRwwOUlU0XFca4YtX46-70" value="" style="endArrow=classic;html=1;rounded=0;exitX=0.5;exitY=1;exitDx=0;exitDy=0;" edge="1" parent="1" source="URRwwOUlU0XFca4YtX46-20">
          <mxGeometry width="50" height="50" relative="1" as="geometry">
            <mxPoint x="360" y="690" as="sourcePoint" />
            <mxPoint x="340" y="610" as="targetPoint" />
          </mxGeometry>
        </mxCell>
        <mxCell id="URRwwOUlU0XFca4YtX46-72" value="" style="ellipse;whiteSpace=wrap;html=1;" vertex="1" parent="1">
          <mxGeometry x="20" y="65" height="5" as="geometry" />
        </mxCell>
        <mxCell id="URRwwOUlU0XFca4YtX46-76" value="" style="ellipse;whiteSpace=wrap;html=1;" vertex="1" parent="1">
          <mxGeometry x="810" y="70" width="10" as="geometry" />
        </mxCell>
        <mxCell id="URRwwOUlU0XFca4YtX46-77" value="" style="ellipse;whiteSpace=wrap;html=1;" vertex="1" parent="1">
          <mxGeometry x="360" y="790" width="5" as="geometry" />
        </mxCell>
      </root>
    </mxGraphModel>
  </diagram>
</mxfile>
